# xmcd CD database file
#
# Track frame offsets:
#	150
#	20750
#	40738
#	64128
#	81036
#	103026
#	122922
#	142918
#	162963
#	185501
#	203168
#	218269
#	234642
#	250428
#	267054
#	283994
#	301630
#	314977
#	326373
#	335378
#
# Disc length: 4706 seconds
#
# Revision: 0
# Processed by: cddbd v1.5.2PL0 Copyright (c) Steve Scherf et al.
# Submitted via: CDex 1.70beta2
#
DISCID=22126014
DTITLE=Various Artist - SALSA HITMIX VOL.5 - CD1
DYEAR=2011
DGENRE=Salsa
TTITLE0=Tumbao Cubacao - Guajiriando
TTITLE1=Soneros De Verdad - Tributo
TTITLE2=Calle Real Me Lo Gane - Mi Amigo Jose
TTITLE3=Combinacion Latina Salsa - Matematica
TTITLE4=Maracaibo Oriental - Nadie Puede Lo Negar
TTITLE5=Orquesta Termidor - Montuno Apreta'o
TTITLE6=Ruben Gonzalez, JR. - Saboreando
TTITLE7=PP Banda - Con Mi Dinero No Hay Juego
TTITLE8=Salsa En La Calle 23 - Calle 23
TTITLE9=Tumbao Cubacao - Esta Lloviendo
TTITLE10=Salsa En La Calle 23 - Un Chachacha Por El Prado
TTITLE11=El Nene - Vanidosa
TTITLE12=Sergio Rivero - La Noche En El Tun Tun
TTITLE13=Pio Leiva Y Los Mentirosos - Mis Tres Mujeres
TTITLE14=Los Van Van - Que Palo Es Ese
TTITLE15=Mario Bauza Orquesta - Ganga (Palo En Ganga)
TTITLE16=The Next Generation - De Todo Un Poco
TTITLE17=Maracaibo Oriental - Imposible Vivir Sin Ti
TTITLE18=Combinacion Latina Salsa - La Gloria Eres Tu
TTITLE19=Los Dos Y Companeros - Gschwista
EXTD=YEAR: 2011
EXTT0=
EXTT1=
EXTT2=
EXTT3=
EXTT4=
EXTT5=
EXTT6=
EXTT7=
EXTT8=
EXTT9=
EXTT10=
EXTT11=
EXTT12=
EXTT13=
EXTT14=
EXTT15=
EXTT16=
EXTT17=
EXTT18=
EXTT19=
PLAYORDER=
